<svg xmlns="http://www.w3.org/2000/svg" width="192" height="192" viewBox="0 0 50.8 50.8">
    <path fill="#4dc0b5" d="M0 0h50.8v50.8H0z"/>
    <g transform="matrix(1.5022 0 0 1.5022 -1.64 .57)" fill="#fff">
        <path d="M8.665 12.871a.501.501 0 0 0 .635.029c.039-.029 3.922-2.9 8.7-2.9 4.766 0 8.662 2.871 8.7 2.9a.5.5 0 1 0 .729-.657C27.3 12.029 24.212 7 18 7s-9.301 5.028-9.429 5.243a.499.499 0 0 0 .094.628z"/>
        <ellipse ry="3.5" rx="2.5" cy="21.5" cx="11.5"/>
        <ellipse ry="3.5" rx="2.5" cy="21.5" cx="24.5"/>
    </g>
</svg>
